<?xml version="1.0" encoding="UTF-8"?>
<svg id="Layer_1" data-name="Layer 1" xmlns="http://www.w3.org/2000/svg" viewBox="0 0 750 288">
  <defs>
    <style>
      .cls-1 {
        font-family: LeagueSpartan-Bold, 'League Spartan';
        font-size: 15.23px;
        font-weight: 700;
      }

      .cls-1, .cls-2 {
        fill: #063b72;
      }

      .cls-3 {
        fill: #f1ba12;
      }

      .cls-4 {
        letter-spacing: -.02em;
      }

      .cls-5 {
        letter-spacing: -.03em;
      }

      .cls-6 {
        letter-spacing: -.03em;
      }

      .cls-7 {
        letter-spacing: -.03em;
      }

      .cls-8 {
        letter-spacing: 0em;
      }

      .cls-9 {
        letter-spacing: 0em;
      }
    </style>
  </defs>
  <g>
    <g>
      <path class="cls-2" d="M289.1,124.44c5.78,0,11.42,1.18,16.93,3.53,5.51,2.35,10.04,6.06,13.61,11.14,3.56,5.07,5.34,11.74,5.34,20.01v50.49h-30.74v-45.46c0-5.91-1.41-10.36-4.23-13.35-2.82-2.99-6.52-4.49-11.09-4.49-3.02,0-5.86.79-8.52,2.37-2.66,1.58-4.8,3.8-6.45,6.65-1.65,2.86-2.47,6.13-2.47,9.83v44.45h-30.64v-82.75h30.64v12.2c.81-2.22,2.5-4.45,5.09-6.7,2.59-2.25,5.85-4.13,9.78-5.64s8.18-2.27,12.75-2.27Z"/>
      <path class="cls-2" d="M356.56,109.82c-4.84,0-8.94-1.7-12.3-5.09-3.36-3.39-5.04-7.44-5.04-12.15s1.7-8.78,5.09-12.25c3.39-3.46,7.47-5.19,12.25-5.19,3.16,0,6.05.79,8.67,2.37,2.62,1.58,4.74,3.68,6.35,6.3s2.42,5.54,2.42,8.77c0,4.7-1.71,8.75-5.14,12.15-3.43,3.39-7.53,5.09-12.3,5.09ZM340.83,209.6v-82.75h30.64v82.75h-30.64Z"/>
      <path class="cls-2" d="M424.12,212.02c-8,0-14.95-1.97-20.86-5.9-5.91-3.93-10.5-9.21-13.76-15.82-3.26-6.62-4.89-13.96-4.89-22.02s1.63-15.4,4.89-22.02c3.26-6.62,7.84-11.91,13.76-15.87,5.91-3.96,12.87-5.95,20.86-5.95,5.31,0,10.01.82,14.11,2.47,4.1,1.65,7.42,3.6,9.98,5.85,2.55,2.25,4.1,4.32,4.64,6.2v-68.03h30.64v138.68h-30.34v-13.4c-1.28,2.49-3.36,4.96-6.25,7.41-2.89,2.45-6.28,4.47-10.18,6.05-3.9,1.58-8.1,2.37-12.6,2.37ZM433.49,187.93c3.69,0,7-.84,9.93-2.52,2.92-1.68,5.22-4.01,6.9-7,1.68-2.99,2.52-6.37,2.52-10.13s-.84-7.14-2.52-10.13c-1.68-2.99-3.98-5.34-6.9-7.06s-6.23-2.57-9.93-2.57-6.77.86-9.63,2.57c-2.86,1.71-5.11,4.07-6.75,7.06-1.65,2.99-2.47,6.37-2.47,10.13s.82,7.14,2.47,10.13c1.65,2.99,3.9,5.33,6.75,7,2.86,1.68,6.06,2.52,9.63,2.52Z"/>
      <g>
        <path class="cls-2" d="M565.43,209.6v-13.4c-.6,1.34-2.13,3.29-4.59,5.85-2.45,2.55-5.69,4.85-9.73,6.9-4.03,2.05-8.74,3.07-14.11,3.07-8.06,0-15.12-1.97-21.17-5.9-6.05-3.93-10.75-9.21-14.11-15.82-3.36-6.62-5.04-13.96-5.04-22.02s1.68-15.4,5.04-22.02c3.36-6.62,8.06-11.91,14.11-15.87,6.05-3.96,13.1-5.95,21.17-5.95,5.17,0,9.71.82,13.61,2.47,3.9,1.65,7.05,3.6,9.47,5.85,2.42,2.25,4.1,4.32,5.04,6.2v-12.09h30.44v82.75h-30.14ZM526.73,168.28c0,3.76.87,7.14,2.62,10.13,1.75,2.99,4.08,5.33,7,7,2.92,1.68,6.16,2.52,9.73,2.52s6.96-.84,9.78-2.52c2.82-1.68,5.06-4.01,6.7-7,1.65-2.99,2.47-6.37,2.47-10.13s-.82-7.14-2.47-10.13c-1.65-2.99-3.88-5.34-6.7-7.06-2.82-1.71-6.08-2.57-9.78-2.57s-6.8.86-9.73,2.57-5.26,4.07-7,7.06c-1.75,2.99-2.62,6.37-2.62,10.13Z"/>
        <path class="cls-2" d="M652.12,124.44c5.44,0,10.42.45,14.92,1.36,4.5.91,8.28,1.93,11.34,3.07,3.06,1.14,5.02,2.08,5.9,2.82l-9.98,18.04c-1.28-.94-3.65-2.15-7.11-3.63-3.46-1.48-7.31-2.22-11.54-2.22-3.23,0-5.95.49-8.16,1.46-2.22.98-3.33,2.5-3.33,4.59s1.23,3.75,3.68,4.99c2.45,1.24,6,2.34,10.63,3.28,4.03.81,8.13,2.08,12.3,3.83,4.17,1.75,7.64,4.32,10.43,7.71,2.79,3.39,4.18,7.91,4.18,13.56s-1.24,10.55-3.73,14.31c-2.49,3.76-5.78,6.69-9.88,8.77-4.1,2.08-8.53,3.54-13.3,4.38-4.77.84-9.41,1.26-13.91,1.26-6.32,0-11.81-.57-16.48-1.71-4.67-1.14-8.45-2.45-11.34-3.93-2.89-1.48-4.91-2.65-6.05-3.53l9.88-20.16c1.75,1.48,4.6,3.14,8.57,4.99,3.96,1.85,8.16,2.77,12.6,2.77s7.62-.64,9.98-1.91c2.35-1.28,3.53-2.96,3.53-5.04,0-1.68-.57-3.02-1.71-4.03s-2.76-1.88-4.84-2.62c-2.08-.74-4.6-1.41-7.56-2.02-2.69-.54-5.54-1.38-8.57-2.52-3.02-1.14-5.88-2.7-8.57-4.69-2.69-1.98-4.87-4.49-6.55-7.51-1.68-3.02-2.52-6.69-2.52-10.99,0-5.51,1.78-10.08,5.34-13.71,3.56-3.63,8.16-6.37,13.81-8.21,5.64-1.85,11.66-2.77,18.04-2.77Z"/>
      </g>
    </g>
    <g>
      <path class="cls-2" d="M533.24,90.17c2.37,2.6,3.55,6.17,3.55,10.7,0,.7-.02,1.23-.05,1.6h-18.8c.43,1.53,1.18,2.71,2.25,3.52,1.07.82,2.37,1.23,3.9,1.23,1.17,0,2.29-.23,3.38-.7,1.08-.47,2.07-1.15,2.97-2.05l4.65,4.65c-1.4,1.57-3.09,2.76-5.08,3.58-1.98.82-4.22,1.22-6.72,1.22-2.9,0-5.43-.57-7.6-1.7-2.17-1.13-3.82-2.73-4.97-4.8-1.15-2.07-1.72-4.47-1.72-7.2s.58-5.21,1.75-7.33c1.17-2.12,2.82-3.75,4.95-4.9s4.6-1.73,7.4-1.73c4.4,0,7.78,1.3,10.15,3.9ZM528.14,97.72c0-1.57-.46-2.83-1.38-3.77-.92-.95-2.12-1.43-3.62-1.43-1.4,0-2.57.47-3.52,1.4-.95.93-1.58,2.2-1.88,3.8h10.4Z"/>
      <path class="cls-2" d="M560.39,95.12c-3.5-1.83-6.37-2.75-8.6-2.75-.77,0-1.38.14-1.85.42-.47.28-.7.71-.7,1.28,0,.6.37,1.08,1.1,1.45.73.37,1.9.77,3.5,1.2,1.93.57,3.54,1.12,4.82,1.67,1.28.55,2.39,1.38,3.32,2.5.93,1.12,1.4,2.58,1.4,4.38,0,2.73-1.06,4.88-3.17,6.43-2.12,1.55-4.88,2.32-8.28,2.32-2.3,0-4.5-.32-6.6-.98-2.1-.65-3.97-1.61-5.6-2.88l2.8-5.75c1.53,1.07,3.14,1.89,4.82,2.48,1.68.58,3.28.88,4.78.88.87,0,1.56-.14,2.08-.42.52-.28.77-.69.77-1.23,0-.67-.38-1.18-1.12-1.55-.75-.37-1.92-.77-3.52-1.2-1.9-.57-3.47-1.12-4.7-1.67-1.23-.55-2.31-1.38-3.22-2.48-.92-1.1-1.38-2.53-1.38-4.3,0-2.73,1.03-4.88,3.1-6.42s4.73-2.33,8-2.33c1.97,0,3.91.27,5.83.8,1.92.53,3.72,1.32,5.42,2.35l-3,5.8Z"/>
      <path class="cls-2" d="M586.64,96.42c-1.27-1.87-3.03-2.8-5.3-2.8-1.6,0-2.9.61-3.9,1.83s-1.5,2.79-1.5,4.72.5,3.55,1.5,4.75c1,1.2,2.3,1.8,3.9,1.8,2.47,0,4.23-1.02,5.3-3.05l6.55,3.75c-1.07,2.07-2.67,3.67-4.8,4.8-2.13,1.13-4.63,1.7-7.5,1.7s-5.2-.57-7.3-1.7c-2.1-1.13-3.72-2.73-4.88-4.8-1.15-2.07-1.72-4.47-1.72-7.2s.58-5.21,1.75-7.33c1.17-2.12,2.81-3.75,4.92-4.9s4.56-1.73,7.33-1.73,5.1.56,7.2,1.68c2.1,1.12,3.73,2.69,4.9,4.72l-6.45,3.75Z"/>
      <path class="cls-2" d="M617.84,87.99c2.23,1.15,3.96,2.77,5.2,4.85,1.23,2.08,1.85,4.49,1.85,7.23s-.62,5.19-1.85,7.27c-1.23,2.08-2.97,3.7-5.2,4.85-2.23,1.15-4.82,1.72-7.75,1.72s-5.52-.57-7.75-1.72c-2.23-1.15-3.96-2.77-5.18-4.85-1.22-2.08-1.82-4.51-1.82-7.27s.61-5.14,1.82-7.23c1.22-2.08,2.94-3.7,5.18-4.85,2.23-1.15,4.82-1.73,7.75-1.73s5.52.58,7.75,1.73ZM605.89,95.32c-1.07,1.23-1.6,2.85-1.6,4.85s.53,3.67,1.6,4.9c1.07,1.23,2.47,1.85,4.2,1.85s3.18-.62,4.25-1.85c1.07-1.23,1.6-2.87,1.6-4.9s-.54-3.62-1.62-4.85c-1.08-1.23-2.49-1.85-4.22-1.85s-3.13.62-4.2,1.85Z"/>
      <path class="cls-2" d="M630.69,113.62v-37.1h8.9v37.1h-8.9Z"/>
      <path class="cls-2" d="M668.53,88.79c2.07,1.72,3.12,4.12,3.15,7.23v17.6h-8.75v-3.05c-1.8,2.3-4.52,3.45-8.15,3.45-2.87,0-5.12-.77-6.77-2.32-1.65-1.55-2.48-3.59-2.48-6.12s.89-4.57,2.68-6c1.78-1.43,4.34-2.17,7.68-2.2h7.05v-.3c0-1.3-.44-2.3-1.32-3-.88-.7-2.16-1.05-3.83-1.05-1.13,0-2.41.18-3.82.55-1.42.37-2.84.9-4.28,1.6l-2.45-6c2.2-1,4.31-1.74,6.32-2.22,2.02-.48,4.11-.73,6.28-.73,3.73,0,6.63.86,8.7,2.57ZM661.03,106.99c1-.65,1.63-1.49,1.9-2.52v-2.35h-5.3c-2.5,0-3.75.93-3.75,2.8,0,.93.32,1.68.97,2.23.65.55,1.54.83,2.67.83,1.33,0,2.5-.33,3.5-.98Z"/>
    </g>
    <g>
      <path class="cls-2" d="M188.64,164.69c0,6.05-.96,11.15-2.87,15.32-1.92,4.17-4.62,7.31-8.11,9.42-3.5,2.12-7.63,3.18-12.4,3.18s-9.04-1.06-12.6-3.18c-3.56-2.11-6.3-5.25-8.21-9.42-1.92-4.17-2.88-9.27-2.88-15.32v-66.08l-30.03-11.75v79.44c0,10.95,2.13,20.45,6.4,28.47,4.26,8.03,10.43,14.25,18.49,18.65,8.07,4.4,17.67,6.6,28.83,6.6s20.63-2.2,28.62-6.6c8-4.4,14.15-10.62,18.45-18.65,4.3-8.02,6.45-17.52,6.45-28.47v-81.22l-30.14,11.8v67.81Z"/>
      <g>
        <g>
          <circle class="cls-2" cx="86.85" cy="99.6" r="5.68"/>
          <rect class="cls-2" x="83.13" y="100.65" width="7.43" height="15.44"/>
          <rect class="cls-2" x="84.51" y="77.17" width="4.68" height="18.92"/>
          <path class="cls-2" d="M89.37,116.09h-5.04s-7.32,52.18-5.62,55.84c.53,1.14,1.81,1.97,3.19,2.57,3.14,1.36,6.75,1.36,9.88,0,1.39-.6,2.67-1.44,3.19-2.57,1.7-3.66-5.62-55.84-5.62-55.84Z"/>
        </g>
        <path class="cls-2" d="M218.83,98.5l-.13.05-28.84,11.29-24.64,9.64-20.4-7.98-28.73-11.24-4.48-1.76v-8.87c18.28,7.15,36.67,14.34,53.61,20.97,15.29-5.98,34.52-13.5,53.55-20.94l.06,8.84Z"/>
        <path class="cls-3" d="M218.83,98.5v17.61c0,.45-.02.89-.05,1.33-.02.3-.05.59-.08.89-.33,2.67-1.23,5.25-2.67,7.55-3.49,5.54-10.95,13.58-26.17,17.94-.4.11-.81.23-1.22.34-6.4,1.7-14.13,2.77-23.42,2.77-7.88,0-14.63-.77-20.4-2.04-1.12-.25-2.2-.51-3.25-.8-13.76-3.72-21.37-10.41-25.48-15.81-.74-.97-1.37-1.9-1.9-2.76-1.73-2.83-2.58-6.09-2.58-9.4v-17.62l4.48,1.76,28.73,11.24,20.4,7.98,24.64-9.64,28.84-11.29.13-.05Z"/>
        <path class="cls-3" d="M265.82,71.26c-29.06,11.36-71.81,28.08-100.6,39.33-31.84-12.45-68.77-26.89-100.6-39.33l100.6-39.33,100.6,39.33Z"/>
      </g>
    </g>
    <path class="cls-3" d="M372.65,220.02c-1.83,20.21-18.83,36.05-39.52,36.05s-37.7-15.84-39.53-36.05h31.88c1.12,3,4.02,5.14,7.42,5.14s6.3-2.14,7.43-5.14h32.32Z"/>
  </g>
  <text class="cls-1" transform="translate(384.61 238.41)"><tspan class="cls-5" x="0" y="0">A</tspan><tspan class="cls-8" x="9.77" y="0">QUI SEUS SONHOS SE </tspan><tspan class="cls-7" x="161.32" y="0">T</tspan><tspan class="cls-9" x="168.62" y="0">ORNAM R</tspan><tspan class="cls-4" x="235.27" y="0">E</tspan><tspan class="cls-8" x="243.06" y="0">ALI</tspan><tspan class="cls-6" x="264.7" y="0">D</tspan><tspan class="cls-8" x="273.35" y="0">ADE</tspan></text>
</svg>